<svg width="512" height="512" xmlns="http://www.w3.org/2000/svg"><rect fill="none" id="canvas_background" height="402" width="582" y="-1" x="-1"/><rect fill="#000000" fill-rule="nonzero" y="-7.32266" x="-7.322608" width="526.645233" ry="64" rx="64" id="rect2987" height="526.645268"/><path fill="#ffffff" id="Yahoo_x21__Buzz_3_" d="m261.125811,455.25215c-73.23417,0 -132.83577,-59.5986 -132.83577,-132.83889l0,-265.66541l75.90395,0l0,265.66541c0,31.40083 25.53562,56.93799 56.93182,56.93799c31.39158,0 56.92874,-25.53563 56.92874,-56.93799c0,-31.39775 -25.53561,-56.9087 -56.92874,-56.9087l-37.96123,0l0,-75.90859l37.96123,0c73.23111,0 132.83583,59.5939 132.83583,132.81883c0,73.23875 -59.60473,132.83735 -132.83583,132.83735z"/></svg>